<svg width="54" height="54" viewBox="0 0 54 54" xmlns="http://www.w3.org/2000/svg"><title>Button/Rounded small +</title><desc>Created with Sketch.</desc><path d="M24.793 28.466h-6.885c-1.014 0-1.836-.822-1.836-1.836 0-1.014.822-1.836 1.836-1.836h6.885v-6.885c0-1.014.822-1.836 1.836-1.836 1.014 0 1.836.822 1.836 1.836v6.885h7.252c1.014 0 1.836.822 1.836 1.836 0 1.014-.822 1.836-1.836 1.836h-7.252v7.252c0 1.014-.822 1.836-1.836 1.836-1.014 0-1.836-.822-1.836-1.836v-7.252zm2.207 25.534c14.912 0 27-12.088 27-27s-12.088-27-27-27-27 12.088-27 27 12.088 27 27 27z" fill="#fff"/></svg>